# xmcd CD database file
#
# Track frame offsets:
#	150
#	31690
#	60005
#	91948
#	117756
#	143379
#	174453
#	195166
#	230694
#	248859
#	264143
#	278003
#	305832
#	321340
#	338930
#
# Disc length: 4788 seconds
#
# Revision: 1
# Processed by: cddbd v1.5.2PL0 Copyright (c) Steve Scherf et al.
# Submitted via: CDex 1.81
#
DISCID=bc12b20f
DTITLE=Miles Davis - Milestones of a Jazz Legend [CD 6)
DYEAR=1956
DGENRE=Jazz
TTITLE0=The Serpent's Tooth I (Davis)
TTITLE1=The Serpent's Tooth II (Davis)
TTITLE2='Round About Midnight (Monk)
TTITLE3=Compulsion (Davis)
TTITLE4=No Line (Davis)
TTITLE5=Vierd Blues (Davis)
TTITLE6=In Your Own Sweet Way (Brubeck)
TTITLE7=I'll Remember April (Raye - DePaul - Johnson)
TTITLE8=Four (Davis)
TTITLE9=That Ole Devil Moon (Harberg - Lane)
TTITLE10=Smooch (Davis)
TTITLE11=Blue Haze (Davis)
TTITLE12=When Lights Are Low (Carter)
TTITLE13=Tune Up (Davis)
TTITLE14=Miles Ahead (Davis)
EXTD=YEAR: 1956
EXTT0=
EXTT1=
EXTT2=
EXTT3=
EXTT4=
EXTT5=
EXTT6=
EXTT7=
EXTT8=
EXTT9=
EXTT10=
EXTT11=
EXTT12=
EXTT13=
EXTT14=
PLAYORDER=
